<?xml version="1.0" encoding="utf-8"?>
<!-- Generator: Adobe Illustrator 23.0.3, SVG Export Plug-In . SVG Version: 6.00 Build 0)  -->
<svg version="1.1" id="Capa_1" xmlns="http://www.w3.org/2000/svg" xmlns:xlink="http://www.w3.org/1999/xlink" x="0px" y="0px"
	 viewBox="0 0 187 187" style="enable-background:new 0 0 187 187;" xml:space="preserve">
<style type="text/css">
	.st0{fill:#4CB5AB;}
	.st1{fill:#010101;}
	.st2{fill:#3EC4FE;}
	.st3{fill:#040404;}
	.st4{fill:#020202;}
	.st5{fill:#FFD63F;}
	.st6{fill:#FF5454;}
	.st7{fill:none;stroke:#FFD63F;stroke-width:15;stroke-linecap:round;stroke-miterlimit:10;}
	.st8{fill:#030303;}
	.st9{fill:url(#SVGID_1_);}
	.st10{fill:url(#SVGID_2_);}
	.st11{fill:url(#SVGID_3_);}
	.st12{fill:url(#SVGID_4_);}
	.st13{fill:url(#SVGID_5_);}
	.st14{fill:url(#SVGID_6_);}
	.st15{fill:url(#SVGID_7_);}
	.st16{fill:url(#SVGID_8_);}
	.st17{fill:url(#SVGID_9_);}
	.st18{fill:#9469F7;}
	.st19{fill:#731A7C;}
	.st20{fill:#E83D24;}
	.st21{fill:#52B0D0;}
	.st22{fill:#DF4092;}
	.st23{fill:#2763BF;}
	.st24{fill:#50A730;}
	.st25{fill:#F7CF47;}
	.st26{fill:#ED8232;}
	.st27{fill:#BD356C;}
	.st28{fill:url(#SVGID_10_);}
	.st29{fill:url(#SVGID_11_);}
	.st30{fill:url(#SVGID_12_);}
	.st31{fill:url(#SVGID_13_);}
	.st32{fill:url(#SVGID_14_);}
	.st33{fill:url(#SVGID_15_);}
	.st34{fill:url(#SVGID_16_);}
	.st35{fill:url(#SVGID_17_);}
	.st36{fill:url(#SVGID_18_);}
</style>
<path class="st20" d="M162.4,43.2c-0.1-4.5-3.2-5.8-7.2-5.8c-20.7-0.3-39.2-6.4-54.5-20.9c-2.9-2.7-5.9-2.7-8.7,0
	C76.6,31,58.1,37.1,37.4,37.3c-5.3,0.1-7.3,2.8-7.3,7.8c0.1,7.2,0,14.4,0,21.6c-0.2,0-0.4,0-0.6,0c0.4,7.8,0.7,15.6,1.3,23.4
	c3.1,39.9,23,67.2,60.8,81.1c2.3,0.8,4.5,1.9,7.1,0.9c28.1-10.3,49.5-27.4,58.3-57.2C164.1,91.4,163.1,67.3,162.4,43.2z M121.4,84
	c-9.1,9-18.1,18-27.1,27.1c-1.6,1.6-3.2,3.2-5.7,3.3c-3.5,0-20.7-17.5-20.7-20.9c0-2.1,1.1-3.7,2.7-4.6c2.1-1.2,4.4-1.1,6.3,0.6
	c2.7,2.5,5.6,4.9,7.9,7.8c2.7,3.2,4.4,3.5,7.5,0.2c6.8-7.4,14.2-14.3,21.3-21.5c2.8-2.8,5.9-5.2,9.5-1.5
	C126.6,78.1,124.2,81.2,121.4,84z"/>
</svg>
